<?xml version="1.0" encoding="UTF-8"?>
<svg width="14px" height="14px" viewBox="0 0 14 14" version="1.1" xmlns="http://www.w3.org/2000/svg" xmlns:xlink="http://www.w3.org/1999/xlink">
    <!-- Generator: Sketch 63.1 (92452) - https://sketch.com -->
    <title>arrow-right</title>
    <desc>Created with Sketch.</desc>
    <g id="Pages" stroke="none" stroke-width="1" fill="none" fill-rule="evenodd">
        <g id="Homepage" transform="translate(-671.000000, -1055.000000)" fill="#4FC56F" fill-rule="nonzero">
            <g id="Group-8" transform="translate(240.000000, 829.000000)">
                <g id="Group-6" transform="translate(349.000000, 221.963855)">
                    <g id="arrow-right" transform="translate(82.000000, 4.000000)">
                        <path d="M7.53628701,0.183491536 L7.61871843,0.256281566 L13.7437184,6.38128157 L13.7511814,6.38883509 C13.7713069,6.40945196 13.7904227,6.43105893 13.8084488,6.45357605 L13.7437184,6.38128157 C13.7761971,6.41376024 13.8055887,6.44815694 13.8318934,6.48410706 C13.8475068,6.50554212 13.8625456,6.52821344 13.8765246,6.55159157 C13.881176,6.55923559 13.885472,6.56667957 13.8896494,6.57417192 C13.9599022,6.70015346 14,6.84539406 14,7 C14,7.07663976 13.9901468,7.15097819 13.9716382,7.22181763 C13.96749,7.23747464 13.9627616,7.25370849 13.9575541,7.26982117 C13.9512603,7.28936494 13.9445171,7.30793147 13.9371758,7.32619322 C13.9306076,7.3425619 13.9234328,7.35898391 13.91573,7.37521778 C13.9077595,7.39189161 13.8994512,7.4080288 13.8906658,7.42386477 C13.8816422,7.44029664 13.8718109,7.45675269 13.8613923,7.47294037 C13.851251,7.48853949 13.8409429,7.50349457 13.8301917,7.51810345 C13.8259214,7.52401384 13.8212611,7.5301747 13.8165085,7.53628701 L13.794402,7.56352474 C13.7834743,7.57649225 13.7721766,7.58913779 13.7605253,7.6014451 L13.7437184,7.61871843 L7.61871843,13.7437184 C7.27700968,14.0854272 6.72299032,14.0854272 6.38128157,13.7437184 C6.0658581,13.428295 6.04159476,12.9319678 6.30849154,12.588713 L6.38128157,12.5062816 L11.011,7.875 L0.875,7.875 C0.391750844,7.875 0,7.48324916 0,7 C0,6.55126864 0.337785166,6.18143123 0.772956515,6.13088676 L0.875,6.125 L11.011,6.125 L6.38128157,1.49371843 C6.0658581,1.17829497 6.04159476,0.681967793 6.30849154,0.338712987 L6.38128157,0.256281566 C6.69670503,-0.0591419 7.19303221,-0.0834052435 7.53628701,0.183491536 Z" id="Combined-Shape"></path>
                    </g>
                </g>
            </g>
        </g>
    </g>
</svg>