<?xml version="1.0" encoding="UTF-8"?>
<svg width="171px" height="63px" viewBox="0 0 171 63" version="1.1" xmlns="http://www.w3.org/2000/svg" xmlns:xlink="http://www.w3.org/1999/xlink">
    <!-- Generator: Sketch 63.1 (92452) - https://sketch.com -->
    <title>logo-dark</title>
    <desc>Created with Sketch.</desc>
    <g id="Pages" stroke="none" stroke-width="1" fill="none" fill-rule="evenodd">
        <g id="FINAL---Article-Option-3" transform="translate(-198.000000, -28.000000)" fill-rule="nonzero">
            <g id="logo-dark" transform="translate(198.000000, 28.000000)">
                <g id="Group-2-Copy" transform="translate(60.000000, 0.000000)" fill="#1B2839">
                    <path d="M4.5445034,9.37750927 L2.73177262,9.37750927 L2.73177262,2.19247044 L0,2.19247044 L0,0.394644679 L7.2699378,0.394644679 L7.2699378,2.19247044 L4.5445034,2.19247044 L4.5445034,9.37750927 Z M10.4469349,9.37750927 L8.71660101,9.37750927 L8.71660101,0 L10.4469349,0 L10.4469349,2.96296719 C10.6539845,2.80844945 10.8673691,2.69882703 11.0870951,2.63409663 C11.3068212,2.56936622 11.5307693,2.53700151 11.7589464,2.53700151 C12.177271,2.53700151 12.5702366,2.61530324 12.9378552,2.77190905 C13.3054738,2.92851487 13.6255507,3.14358363 13.8980955,3.41712178 C14.1706403,3.69065994 14.3861376,4.01013101 14.5445939,4.37554457 C14.7030502,4.74095814 14.7822771,5.13037876 14.7822771,5.54381811 L14.7822771,9.37750927 L13.0392667,9.37750927 L13.0392667,5.54381811 L13.0519432,5.54381811 C13.0519432,5.36841959 13.0181397,5.20241992 12.9505317,5.04581411 C12.8829236,4.88920829 12.789964,4.75244127 12.67165,4.63550892 C12.553336,4.51857658 12.4160093,4.42670255 12.2596657,4.35988407 C12.1033222,4.29306559 11.9364174,4.25965685 11.7589464,4.25965685 C11.5772499,4.25965685 11.4061196,4.29306559 11.2455506,4.35988407 C11.0849816,4.42670255 10.9455421,4.51857658 10.8272281,4.63550892 C10.7089141,4.75244127 10.6159545,4.88920829 10.5483465,5.04581411 C10.4807384,5.20241992 10.4469349,5.36841959 10.4469349,5.54381811 L10.4469349,9.37750927 Z M19.3790354,7.73628854 C19.4466434,7.75716921 19.5142504,7.77074162 19.5818584,7.77700585 C19.6494665,7.78327008 19.7170735,7.78640215 19.7846815,7.78640215 C19.9537015,7.78640215 20.1163808,7.76343365 20.2727244,7.71749594 C20.4290679,7.67155823 20.5759019,7.60578478 20.7132306,7.5201736 C20.8505594,7.43456242 20.9730971,7.33016011 21.0808474,7.20696354 C21.1885976,7.08376696 21.2762755,6.94699994 21.3438835,6.79665836 L22.6115274,8.05576281 C22.4509584,8.28127518 22.2660955,8.48381566 22.0569332,8.66339033 C21.8477709,8.842965 21.62171,8.99539237 21.3787437,9.12067702 C21.1357774,9.24596167 20.8801384,9.34096777 20.6118191,9.40569818 C20.3434998,9.47042858 20.06779,9.5027933 19.7846815,9.5027933 C19.3071999,9.5027933 18.8582472,9.41509536 18.4378098,9.23969684 C18.0173725,9.06429833 17.6497594,8.81999693 17.3349596,8.5067853 C17.0201598,8.19357367 16.7719154,7.82085742 16.5902188,7.38862537 C16.4085223,6.95639333 16.3176754,6.48136282 16.3176754,5.96351959 C16.3176754,5.4331479 16.4085223,4.94872118 16.5902188,4.5102249 C16.7719154,4.07172862 17.0201598,3.69796835 17.3349596,3.38893288 C17.6497594,3.0798974 18.0173725,2.83977209 18.4378098,2.66854973 C18.8582472,2.49732738 19.3071999,2.41171748 19.7846815,2.41171748 C20.06779,2.41171748 20.3445562,2.44512622 20.6149882,2.5119447 C20.8854203,2.57876318 21.1421156,2.67481331 21.3850819,2.80009796 C21.6280482,2.92538261 21.8551655,3.07885401 22.0664405,3.26051675 C22.2777155,3.4421795 22.4636348,3.645764 22.6242038,3.87127637 L19.3790354,7.73628854 Z M20.2663862,4.20954324 C20.1861016,4.18031015 20.1068747,4.16151774 20.0287029,4.15316543 C19.9505312,4.14481312 19.8691915,4.14063703 19.7846815,4.14063703 C19.5480534,4.14063703 19.3251616,4.18344197 19.1159993,4.26905315 C18.906837,4.35466433 18.7251432,4.47681503 18.5709124,4.63550892 C18.4166817,4.79420282 18.2952003,4.98525904 18.2064648,5.20868334 C18.1177293,5.43210763 18.0733622,5.6837172 18.0733622,5.96351959 C18.0733622,6.02616192 18.0765313,6.09715549 18.0828695,6.17650243 C18.0892078,6.25584938 18.0997714,6.33623916 18.1145606,6.41767418 C18.1293499,6.4991092 18.147308,6.57741094 18.1684355,6.65258173 C18.189563,6.72775252 18.2170283,6.79457 18.2508323,6.85303617 L20.2663862,4.20954324 Z" id="The"></path>
                    <path d="M16.2016367,46.7676647 C16.2016367,47.2720133 16.1097869,47.7416809 15.9260847,48.1766816 C15.7423825,48.6116823 15.4924658,48.9878366 15.1763271,49.305156 C14.8601885,49.6224753 14.4895855,49.8725444 14.0645071,50.0553708 C13.6394288,50.2381971 13.1833842,50.3296089 12.6963597,50.3296089 C12.2136074,50.3296089 11.7596989,50.2381971 11.3346205,50.0553708 C10.9095422,49.8725444 10.5378712,49.6224753 10.2195964,49.305156 C9.90132166,48.9878366 9.65033695,48.6116823 9.46663474,48.1766816 C9.28293253,47.7416809 9.1910828,47.2720133 9.1910828,46.7676647 C9.1910828,46.2549103 9.28293253,45.7799891 9.46663474,45.342887 C9.65033695,44.9057849 9.90132166,44.5285798 10.2195964,44.2112605 C10.5378712,43.8939412 10.9095422,43.6449228 11.3346205,43.4641978 C11.7596989,43.2834729 12.2136074,43.1931118 12.6963597,43.1931118 C13.1833842,43.1931118 13.6394288,43.2782194 14.0645071,43.448437 C14.4895855,43.6186547 14.8601885,43.8603181 15.1763271,44.1734345 C15.4924658,44.486551 15.7423825,44.8627053 15.9260847,45.3019089 C16.1097869,45.7411125 16.2016367,46.2296929 16.2016367,46.7676647 Z M14.4393859,46.7676647 C14.4393859,46.490273 14.3934611,46.2391532 14.30161,46.0142977 C14.2097589,45.7894423 14.0848005,45.5961116 13.9267312,45.4342997 C13.7686618,45.2724879 13.5838943,45.1485041 13.3724232,45.0623445 C13.1609521,44.976185 12.9355998,44.9331058 12.6963597,44.9331058 C12.4571197,44.9331058 12.2317674,44.976185 12.0202963,45.0623445 C11.8088251,45.1485041 11.6251257,45.2724879 11.4691924,45.4342997 C11.3132591,45.5961116 11.1904368,45.7894423 11.1007218,46.0142977 C11.0110068,46.2391532 10.9661499,46.490273 10.9661499,46.7676647 C10.9661499,47.0282448 11.0110068,47.2699082 11.1007218,47.4926622 C11.1904368,47.7154162 11.3132591,47.9087469 11.4691924,48.0726602 C11.6251257,48.2365735 11.8088251,48.3658109 12.0202963,48.4603763 C12.2317674,48.5549416 12.4571197,48.6022236 12.6963597,48.6022236 C12.9355998,48.6022236 13.1609521,48.5580938 13.3724232,48.4698327 C13.5838943,48.3815717 13.7686618,48.2575879 13.9267312,48.0978775 C14.0848005,47.9381671 14.2097589,47.7448364 14.30161,47.5178795 C14.3934611,47.2909226 14.4393859,47.0408535 14.4393859,46.7676647 Z M19.99044,50.2035224 L18.2410056,50.2035224 L18.2410056,45.1663659 L17.3887171,45.1663659 L17.3887171,43.4515892 L18.2410056,43.4515892 L18.2410056,43.1300686 C18.2410056,42.713981 18.3211071,42.3231167 18.4813125,41.9574639 C18.6415179,41.5918112 18.8615301,41.2734459 19.1413555,41.0023585 C19.421181,40.7312711 19.7469271,40.5169262 20.1186037,40.3593173 C20.4902802,40.2017083 20.8875837,40.122905 21.310526,40.122905 L22.6242038,40.122905 L22.6242038,41.8376817 L21.310526,41.8376817 C21.1225516,41.8376817 20.9484644,41.8702537 20.788259,41.9353988 C20.6280535,42.0005438 20.4892109,42.0909049 20.371727,42.2064848 C20.254243,42.3220647 20.1613252,42.458657 20.0929709,42.616266 C20.0246166,42.7738749 19.99044,42.9451407 19.99044,43.1300686 L19.99044,43.4515892 L22.1371818,43.4515892 L22.1371818,45.1663659 L19.99044,45.1663659 L19.99044,50.2035224 Z" id="of"></path>
                    <path d="M0,21.1386491 C0,20.3933375 0.144240355,19.694095 0.432725391,19.0409006 C0.721210427,18.3877062 1.11362904,17.8161697 1.609993,17.3262739 C2.10635696,16.8363781 2.68543956,16.4490731 3.34725817,16.1643474 C4.00907678,15.8796216 4.71755147,15.7372609 5.47270348,15.7372609 L13.8472125,15.7372609 L13.8472125,19.3423735 L5.47270348,19.3423735 C5.21815785,19.3423735 4.98058551,19.3884313 4.7599793,19.4805485 C4.5393731,19.5726657 4.34634556,19.7003716 4.18089091,19.8636702 C4.01543626,20.0269688 3.88604417,20.217481 3.79271078,20.4352125 C3.69937739,20.6529439 3.65271139,20.8874204 3.65271139,21.1386491 C3.65271139,21.3898777 3.69937739,21.6264477 3.79271078,21.8483663 C3.88604417,22.070285 4.01543626,22.2628907 4.18089091,22.4261893 C4.34634556,22.5894879 4.5393731,22.7171938 4.7599793,22.809311 C4.98058551,22.9014281 5.21815785,22.947486 5.47270348,22.947486 L9.12541486,22.947486 C9.88056687,22.947486 10.5911627,23.0877532 11.2572238,23.3682919 C11.9232848,23.6488305 12.5044886,24.0340419 13.0008526,24.5239377 C13.4972165,25.0138335 13.8875139,25.5874636 14.1717566,26.2448451 C14.4559992,26.9022266 14.5981183,27.6035627 14.5981183,28.3488742 C14.5981183,29.0941858 14.4559992,29.7934283 14.1717566,30.4466227 C13.8875139,31.099817 13.4972165,31.6713536 13.0008526,32.1612494 C12.5044886,32.6511452 11.9232848,33.0384501 11.2572238,33.3231759 C10.5911627,33.6079017 9.88056687,33.7502624 9.12541486,33.7502624 L1.01817739,33.7502624 L1.01817739,30.1451498 L9.12541486,30.1451498 C9.37996048,30.1451498 9.61753283,30.0990919 9.83813904,30.0069748 C10.0587452,29.9148576 10.2517728,29.7871517 10.4172274,29.6238531 C10.5826821,29.4605545 10.7120742,29.2700423 10.8054076,29.0523108 C10.898741,28.8345794 10.945407,28.6001016 10.945407,28.3488742 C10.945407,28.0976456 10.898741,27.8631691 10.8054076,27.6454376 C10.7120742,27.4277062 10.5826821,27.237194 10.4172274,27.0738954 C10.2517728,26.9105968 10.0587452,26.7828908 9.83813904,26.6907737 C9.61753283,26.5986565 9.37996048,26.5525986 9.12541486,26.5525986 L5.47270348,26.5525986 C4.71755147,26.5525986 4.00907678,26.4102379 3.34725817,26.1255121 C2.68543956,25.8407863 2.10635696,25.4534814 1.609993,24.9635856 C1.11362904,24.4736898 0.721210427,23.9000597 0.432725391,23.2426782 C0.144240355,22.5852966 0,21.8839606 0,21.1386491 Z M32.9029677,31.9037413 C32.0544823,32.62393 31.1041929,33.1766247 30.052071,33.5618419 C28.9999491,33.9470591 27.9096617,34.1396648 26.7811761,34.1396648 C25.915721,34.1396648 25.0820966,34.0287072 24.2802779,33.8067886 C23.4784592,33.5848699 22.7275609,33.2708389 22.0275604,32.864686 C21.32756,32.458533 20.6890843,31.9707381 20.1121142,31.4012866 C19.5351441,30.8318351 19.0409088,30.2016794 18.6293934,29.5108007 C18.217878,28.8199221 17.8997007,28.0788088 17.6748521,27.2874386 C17.4500034,26.4960685 17.3375808,25.6733071 17.3375808,24.8191298 C17.3375808,23.9649526 17.4500034,23.1400977 17.6748521,22.3445404 C17.8997007,21.5489831 18.217878,20.8057763 18.6293934,20.1148976 C19.0409088,19.4240189 19.5351441,18.7938632 20.1121142,18.2244117 C20.6890843,17.6549602 21.32756,17.1671653 22.0275604,16.7610124 C22.7275609,16.3548594 23.4784592,16.0408284 24.2802779,15.8189098 C25.0820966,15.5969912 25.915721,15.4860335 26.7811761,15.4860335 C27.9096617,15.4860335 28.9999491,15.6765457 30.052071,16.0575758 C31.1041929,16.4386058 32.0544823,16.993394 32.9029677,17.721957 L30.9684306,20.862299 C30.4338848,20.2928474 29.8017727,19.8552975 29.0720752,19.549636 C28.3423778,19.2439745 27.5787524,19.0911461 26.7811761,19.0911461 C25.975115,19.0911461 25.2199743,19.241881 24.5157314,19.5433553 C23.8114885,19.8448297 23.1963458,20.2530701 22.6702849,20.7680887 C22.1442239,21.2831074 21.7284723,21.8902341 21.4230176,22.589487 C21.1175628,23.28874 20.9648378,24.0319469 20.9648378,24.8191298 C20.9648378,25.6063128 21.1175628,26.3453326 21.4230176,27.0362113 C21.7284723,27.72709 22.1442239,28.3321231 22.6702849,28.8513289 C23.1963458,29.3705347 23.8114885,29.7808686 24.5157314,30.082343 C25.2199743,30.3838173 25.975115,30.5345522 26.7811761,30.5345522 C27.5787524,30.5345522 28.3423778,30.3817238 29.0720752,30.0760623 C29.8017727,29.7704008 30.4338848,29.3328509 30.9684306,28.7633994 L32.9029677,31.9037413 Z M40.0078657,33.7502624 L36.3551543,33.7502624 L36.3551543,15.7372609 L40.0078657,15.7372609 L40.0078657,33.7502624 Z M57.2436288,33.7502624 L44.7327741,33.7502624 L44.7327741,15.7372609 L57.2436288,15.7372609 L57.2436288,19.3423735 L48.3854855,19.3423735 L48.3854855,22.947486 L54.3800049,22.947486 L54.3800049,26.5525986 L48.3854855,26.5525986 L48.3854855,30.1451498 L57.2436288,30.1451498 L57.2436288,33.7502624 Z M75.7393864,33.7502624 L71.8321306,33.7502624 L64.7939794,21.8923311 L64.7939794,33.7502624 L61.141268,33.7502624 L61.141268,15.7372609 L65.0485238,15.7372609 L72.086675,27.6077535 L72.086675,15.7372609 L75.7393864,15.7372609 L75.7393864,33.7502624 Z M95.0369587,31.9037413 C94.1884733,32.62393 93.2381839,33.1766247 92.186062,33.5618419 C91.1339401,33.9470591 90.0436527,34.1396648 88.9151671,34.1396648 C88.049712,34.1396648 87.2160876,34.0287072 86.4142689,33.8067886 C85.6124502,33.5848699 84.8615519,33.2708389 84.1615514,32.864686 C83.461551,32.458533 82.8230753,31.9707381 82.2461052,31.4012866 C81.6691351,30.8318351 81.1748998,30.2016794 80.7633844,29.5108007 C80.3518689,28.8199221 80.0336917,28.0788088 79.8088431,27.2874386 C79.5839944,26.4960685 79.4715718,25.6733071 79.4715718,24.8191298 C79.4715718,23.9649526 79.5839944,23.1400977 79.8088431,22.3445404 C80.0336917,21.5489831 80.3518689,20.8057763 80.7633844,20.1148976 C81.1748998,19.4240189 81.6691351,18.7938632 82.2461052,18.2244117 C82.8230753,17.6549602 83.461551,17.1671653 84.1615514,16.7610124 C84.8615519,16.3548594 85.6124502,16.0408284 86.4142689,15.8189098 C87.2160876,15.5969912 88.049712,15.4860335 88.9151671,15.4860335 C90.0436527,15.4860335 91.1339401,15.6765457 92.186062,16.0575758 C93.2381839,16.4386058 94.1884733,16.993394 95.0369587,17.721957 L93.1024216,20.862299 C92.5678758,20.2928474 91.9357637,19.8552975 91.2060662,19.549636 C90.4763688,19.2439745 89.7127434,19.0911461 88.9151671,19.0911461 C88.109106,19.0911461 87.3539653,19.241881 86.6497224,19.5433553 C85.9454795,19.8448297 85.3303368,20.2530701 84.8042759,20.7680887 C84.2782149,21.2831074 83.8624633,21.8902341 83.5570086,22.589487 C83.2515538,23.28874 83.0988288,24.0319469 83.0988288,24.8191298 C83.0988288,25.6063128 83.2515538,26.3453326 83.5570086,27.0362113 C83.8624633,27.72709 84.2782149,28.3321231 84.8042759,28.8513289 C85.3303368,29.3705347 85.9454795,29.7808686 86.6497224,30.082343 C87.3539653,30.3838173 88.109106,30.5345522 88.9151671,30.5345522 C89.7127434,30.5345522 90.4763688,30.3817238 91.2060662,30.0760623 C91.9357637,29.7704008 92.5678758,29.3328509 93.1024216,28.7633994 L95.0369587,31.9037413 Z M111,33.7502624 L98.4891453,33.7502624 L98.4891453,15.7372609 L111,15.7372609 L111,19.3423735 L102.141857,19.3423735 L102.141857,22.947486 L108.136376,22.947486 L108.136376,26.5525986 L102.141857,26.5525986 L102.141857,30.1451498 L111,30.1451498 L111,33.7502624 Z" id="SCIENCE"></path>
                    <path d="M45.5078134,51.5614525 C45.5078134,52.6143785 45.3725245,53.6274057 45.1019425,54.6005645 C44.8313605,55.5737233 44.4467154,56.4830548 43.9479956,57.3285863 C43.4492759,58.1741177 42.8550655,58.9451883 42.1653467,59.6418211 C41.4756279,60.338454 40.7063376,60.9366984 39.8574529,61.4365723 C39.0085682,61.9364462 38.0986836,62.3219815 37.1277717,62.5931897 C36.1568599,62.8643979 35.1461717,63 34.0956769,63 L27.2197452,63 L27.2197452,40.122905 L34.0956769,40.122905 C35.1461717,40.122905 36.1568599,40.2585071 37.1277717,40.5297153 C38.0986836,40.8009235 39.0085682,41.1864588 39.8574529,41.6863327 C40.7063376,42.1862067 41.4756279,42.7844511 42.1653467,43.4810839 C42.8550655,44.1777167 43.4492759,44.9487873 43.9479956,45.7943187 C44.4467154,46.6398502 44.8313605,47.5491817 45.1019425,48.5223405 C45.3725245,49.4954994 45.5078134,50.5085266 45.5078134,51.5614525 Z M40.9397755,51.5614525 C40.9397755,50.6148827 40.7620429,49.7268221 40.4065725,48.8972441 C40.051102,48.0676661 39.5630006,47.3417962 38.9422537,46.7196127 C38.3215068,46.0974292 37.5946602,45.6055393 36.761692,45.2439284 C35.9287239,44.8823174 35.0400611,44.7015147 34.0956769,44.7015147 L31.8196162,44.7015147 L31.8196162,58.4213903 L34.0956769,58.4213903 C35.0400611,58.4213903 35.9287239,58.2432464 36.761692,57.8869533 C37.5946602,57.5306602 38.3215068,57.0414292 38.9422537,56.4192457 C39.5630006,55.7970622 40.051102,55.0685334 40.4065725,54.2336376 C40.7620429,53.3987418 40.9397755,52.5080223 40.9397755,51.5614525 Z M63.6406068,53.858734 L63.6406068,49.2801244 C63.6406068,48.652623 63.5212342,48.0596963 63.2824854,47.5013265 C63.0437366,46.9429567 62.7174514,46.4563846 62.3036201,46.0415956 C61.8897888,45.6268066 61.4043402,45.2997663 60.8472596,45.0604649 C60.290179,44.8211636 59.6986214,44.7015147 59.0725689,44.7015147 C58.4465164,44.7015147 57.8549588,44.8211636 57.2978782,45.0604649 C56.7407976,45.2997663 56.255349,45.6268066 55.8415177,46.0415956 C55.4276864,46.4563846 55.1014012,46.9429567 54.8626524,47.5013265 C54.6239036,48.0596963 54.504531,48.652623 54.504531,49.2801244 L54.504531,53.858734 L63.6406068,53.858734 Z M68.2086448,63 L63.6406068,63 L63.6406068,58.4213903 L54.504531,58.4213903 L54.504531,63 L49.9524096,63 L49.9524096,49.2801244 C49.9524096,48.0144861 50.1911548,46.8259739 50.6686524,45.714552 C51.1461501,44.6031302 51.7960677,43.6326448 52.6184247,42.8030668 C53.4407818,41.9734888 54.4063736,41.3194082 55.5152293,40.8408055 C56.6240849,40.3622028 57.8098529,40.122905 59.0725689,40.122905 C60.3352849,40.122905 61.5210529,40.3622028 62.6299085,40.8408055 C63.7387642,41.3194082 64.7070088,41.9734888 65.5346713,42.8030668 C66.3623339,43.6326448 67.0149042,44.6031302 67.4924019,45.714552 C67.9698995,46.8259739 68.2086448,48.0144861 68.2086448,49.2801244 L68.2086448,63 Z M82.7443072,63 L78.1921858,63 L78.1921858,44.7015147 L71.3321707,44.7015147 L71.3321707,40.122905 L89.5884059,40.122905 L89.5884059,44.7015147 L82.7443072,44.7015147 L82.7443072,63 Z M106.431962,53.858734 L106.431962,49.2801244 C106.431962,48.652623 106.312589,48.0596963 106.073841,47.5013265 C105.835092,46.9429567 105.508807,46.4563846 105.094975,46.0415956 C104.681144,45.6268066 104.195695,45.2997663 103.638615,45.0604649 C103.081534,44.8211636 102.489977,44.7015147 101.863924,44.7015147 C101.237872,44.7015147 100.646314,44.8211636 100.089233,45.0604649 C99.5321529,45.2997663 99.0467042,45.6268066 98.6328729,46.0415956 C98.2190416,46.4563846 97.8927565,46.9429567 97.6540077,47.5013265 C97.4152588,48.0596963 97.2958862,48.652623 97.2958862,49.2801244 L97.2958862,53.858734 L106.431962,53.858734 Z M111,63 L106.431962,63 L106.431962,58.4213903 L97.2958862,58.4213903 L97.2958862,63 L92.7437648,63 L92.7437648,49.2801244 C92.7437648,48.0144861 92.98251,46.8259739 93.4600077,45.714552 C93.9375053,44.6031302 94.5874229,43.6326448 95.40978,42.8030668 C96.232137,41.9734888 97.1977289,41.3194082 98.3065845,40.8408055 C99.4154401,40.3622028 100.601208,40.122905 101.863924,40.122905 C103.12664,40.122905 104.312408,40.3622028 105.421264,40.8408055 C106.530119,41.3194082 107.498364,41.9734888 108.326027,42.8030668 C109.153689,43.6326448 109.806259,44.6031302 110.283757,45.714552 C110.761255,46.8259739 111,48.0144861 111,49.2801244 L111,63 Z" id="DATA"></path>
                </g>
                <g id="flask-copy">
                    <path d="M62.4466256,53.833236 L45.7591979,28.6103765 L45.7591979,3.87150838 L33.8884499,3.87150838 L33.8884499,28.6103765 L17.2008986,53.833236 C14.5999683,57.7645416 17.4302761,63 22.1566886,63 L57.4908356,63 C62.2172481,63 65.0476796,57.7645416 62.4466256,53.833236 Z" id="Path" fill="#AEEFFF"></path>
                    <path d="M40.1762115,3.87150838 L34.2611427,3.87150838 L34.2611427,28.6103765 L17.5544561,53.833236 C14.9505433,57.7645416 17.7840966,63 22.5159288,63 L40.1762115,63 L40.1762115,3.87150838 L40.1762115,3.87150838 Z" id="Path" fill="#4CD7FF"></path>
                    <path d="M60.1195255,55.607394 L55.9936651,49.3591691 C55.8112591,49.0828807 52.2893785,48.2337234 51.9574169,48.2337234 C49.8991212,46.4758569 48.125934,45.2108254 46.6378553,44.4386288 C44.0169647,43.0785914 39.7066508,39.8802402 33.7069137,34.8435754 C33.3750755,34.8435754 27.1602301,44.6049431 26.9778241,44.8812314 L19.8805386,55.606902 C19.2688548,56.5304874 19.2187147,57.6615966 19.7454321,58.63082 C20.2694326,59.6033648 21.2458049,60.1843575 22.3553076,60.1843575 L57.6447564,60.1843575 C58.7542591,60.1843575 59.7307549,59.6033648 60.2536439,58.6332803 C60.7814728,57.6615966 60.7313327,56.5304874 60.1195255,55.607394 Z" id="Path" fill="#4FC56F"></path>
                    <path d="M45.9471366,3.87150838 L34.0528634,3.87150838 C32.9579708,3.87150838 32.0704846,3.00489543 32.0704846,1.93575419 L32.0704846,1.93575419 C32.0704846,0.866612954 32.9579708,0 34.0528634,0 L45.9471366,0 C47.0420292,0 47.9295154,0.866612954 47.9295154,1.93575419 L47.9295154,1.93575419 C47.9295154,3.00489543 47.0419053,3.87150838 45.9471366,3.87150838 Z" id="Path" fill="#4BB9EC"></path>
                    <ellipse id="Oval" fill="#40A55B" cx="32.9515419" cy="51.2094972" rx="1.93832599" ry="1.93575419"></ellipse>
                    <path d="M24.6698238,37.3072626 C24.1931718,37.3072626 23.7526432,37.1118148 23.4169604,36.7937419 C23.0830396,36.4572974 22.907489,35.9964569 22.907489,35.5365018 C22.907489,35.0756613 23.0830396,34.6157062 23.4169604,34.2792616 C24.069163,33.6238588 25.2495595,33.6238588 25.9017621,34.2792616 C26.2372247,34.6157062 26.4317181,35.0583964 26.4317181,35.5365018 C26.4317181,36.0146072 26.2372247,36.4572974 25.9017621,36.7937419 C25.5852423,37.1118148 25.127533,37.3072626 24.6698238,37.3072626 Z" id="Path-Copy-4" fill="#4FC56F"></path>
                    <path d="M24.3173128,31.6759777 C24.0313216,31.6759777 23.7670044,31.558709 23.5655947,31.3678653 C23.3652423,31.1659985 23.2599119,30.8894943 23.2599119,30.6135212 C23.2599119,30.3370169 23.3652423,30.0610438 23.5655947,29.8591771 C23.9569163,29.4659354 24.6651542,29.4659354 25.0564758,29.8591771 C25.2577533,30.0610438 25.3744493,30.3266579 25.3744493,30.6135212 C25.3744493,30.9003844 25.2577533,31.1659985 25.0564758,31.3678653 C24.8665639,31.558709 24.5919383,31.6759777 24.3173128,31.6759777 Z" id="Path-Copy-5" fill="#4FC56F"></path>
                    <path d="M30.3085022,26.7486034 C30.022511,26.7486034 29.7581938,26.6313347 29.5567841,26.440491 C29.3564317,26.2386242 29.2511013,25.9621199 29.2511013,25.6861469 C29.2511013,25.4096426 29.3564317,25.1336695 29.5567841,24.9318028 C29.9481057,24.5385611 30.6563436,24.5385611 31.0476652,24.9318028 C31.2489427,25.1336695 31.3656388,25.3992836 31.3656388,25.6861469 C31.3656388,25.9730101 31.2489427,26.2386242 31.0476652,26.440491 C30.8577533,26.6313347 30.5831278,26.7486034 30.3085022,26.7486034 Z" id="Path-Copy-6" fill="#4FC56F"></path>
                    <path d="M21.1455947,22.1731844 C20.6689427,22.1731844 20.2284141,21.9777366 19.8927313,21.6596637 C19.5588106,21.3232192 19.3832599,20.8623787 19.3832599,20.4024236 C19.3832599,19.9415831 19.5588106,19.481628 19.8927313,19.1451834 C20.5449339,18.4897806 21.7253304,18.4897806 22.377533,19.1451834 C22.7129956,19.481628 22.907489,19.9243182 22.907489,20.4024236 C22.907489,20.880529 22.7129956,21.3232192 22.377533,21.6596637 C22.0610132,21.9777366 21.603304,22.1731844 21.1455947,22.1731844 Z" id="Path-Copy-7" fill="#4FC56F"></path>
                    <path d="M13.3922026,28.5083799 C13.1062115,28.5083799 12.8418943,28.3911113 12.6404846,28.2002675 C12.4401322,27.9984008 12.3348018,27.7218965 12.3348018,27.4459234 C12.3348018,27.1694191 12.4401322,26.8934461 12.6404846,26.6915793 C13.0318062,26.2983376 13.7400441,26.2983376 14.1313656,26.6915793 C14.3326432,26.8934461 14.4493392,27.1590602 14.4493392,27.4459234 C14.4493392,27.7327867 14.3326432,27.9984008 14.1313656,28.2002675 C13.9414537,28.3911113 13.6668282,28.5083799 13.3922026,28.5083799 Z" id="Path-Copy-8" fill="#4FC56F"></path>
                    <path d="M4.22929515,28.8603352 C3.75264317,28.8603352 3.31211454,28.6648875 2.97643172,28.3468146 C2.64251101,28.01037 2.46696035,27.5495295 2.46696035,27.0895744 C2.46696035,26.6287339 2.64251101,26.1687788 2.97643172,25.8323343 C3.62863436,25.1769314 4.80903084,25.1769314 5.46123348,25.8323343 C5.79669604,26.1687788 5.99118943,26.611469 5.99118943,27.0895744 C5.99118943,27.5676798 5.79669604,28.01037 5.46123348,28.3468146 C5.14471366,28.6648875 4.68700441,28.8603352 4.22929515,28.8603352 Z" id="Path-Copy-9" fill="#4FC56F"></path>
                    <path d="M9.16312775,20.4134078 C8.87713656,20.4134078 8.61281938,20.2961392 8.41140969,20.1052954 C8.21105727,19.9034287 8.10572687,19.6269244 8.10572687,19.3509513 C8.10572687,19.0744471 8.21105727,18.798474 8.41140969,18.5966073 C8.80273128,18.2033656 9.51096916,18.2033656 9.90229075,18.5966073 C10.1035683,18.798474 10.2202643,19.0640881 10.2202643,19.3509513 C10.2202643,19.6378146 10.1035683,19.9034287 9.90229075,20.1052954 C9.71237885,20.2961392 9.4377533,20.4134078 9.16312775,20.4134078 Z" id="Path-Copy-10" fill="#4FC56F"></path>
                    <path d="M36.6521145,41.5307263 C36.3661233,41.5307263 36.1018062,41.4134576 35.9003965,41.2226139 C35.7000441,41.0207472 35.5947137,40.7442429 35.5947137,40.4682698 C35.5947137,40.1917655 35.7000441,39.9157924 35.9003965,39.7139257 C36.2917181,39.320684 36.9896476,39.320684 37.3912775,39.7139257 C37.5925551,39.9157924 37.7092511,40.1917655 37.7092511,40.4682698 C37.7092511,40.7442429 37.5925551,41.0207472 37.4026432,41.2226139 C37.2013656,41.4134576 36.9267401,41.5307263 36.6521145,41.5307263 Z" id="Path" fill="#40A55B"></path>
                    <path d="M42.2908811,50.3296089 C42.0048899,50.3296089 41.7405727,50.2123403 41.539163,50.0214966 C41.3388106,49.8196298 41.2334802,49.5431255 41.2334802,49.2671525 C41.2334802,48.9906482 41.3388106,48.7146751 41.539163,48.5128084 C41.9304846,48.1195667 42.6284141,48.1195667 43.0300441,48.5128084 C43.2313216,48.7146751 43.3480176,48.9906482 43.3480176,49.2671525 C43.3480176,49.5431255 43.2313216,49.8196298 43.0414097,50.0214966 C42.8401322,50.2123403 42.5655066,50.3296089 42.2908811,50.3296089 Z" id="Path-Copy-11" fill="#40A55B"></path>
                    <path d="M51.8063877,53.849162 C51.3297357,53.849162 50.889207,53.6537143 50.5535242,53.3356414 C50.2196035,52.9991968 50.0440529,52.5383563 50.0440529,52.0784012 C50.0440529,51.6175607 50.2196035,51.1576056 50.5535242,50.8211611 C51.2057269,50.1657582 52.3689427,50.1657582 53.038326,50.8211611 C53.3737885,51.1576056 53.5682819,51.6175607 53.5682819,52.0784012 C53.5682819,52.5383563 53.3737885,52.9991968 53.0572687,53.3356414 C52.7218062,53.6537143 52.2640969,53.849162 51.8063877,53.849162 Z" id="Path-Copy-13" fill="#40A55B"></path>
                    <path d="M48.2820705,41.5307263 C47.9960793,41.5307263 47.7317621,41.4134576 47.5303524,41.2226139 C47.33,41.0207472 47.2246696,40.7442429 47.2246696,40.4682698 C47.2246696,40.1917655 47.33,39.9157924 47.5303524,39.7139257 C47.921674,39.320684 48.6196035,39.320684 49.0212335,39.7139257 C49.222511,39.9157924 49.339207,40.1917655 49.339207,40.4682698 C49.339207,40.7442429 49.222511,41.0207472 49.0325991,41.2226139 C48.8313216,41.4134576 48.556696,41.5307263 48.2820705,41.5307263 Z" id="Path-Copy-12" fill="#4CD7FF"></path>
                    <path d="M42.9957269,32.7318436 C42.7097357,32.7318436 42.4454185,32.6145749 42.2440088,32.4237312 C42.0436564,32.2218645 41.938326,31.9453602 41.938326,31.6693871 C41.938326,31.3928828 42.0436564,31.1169097 42.2440088,30.915043 C42.6353304,30.5218013 43.3332599,30.5218013 43.7348899,30.915043 C43.9361674,31.1169097 44.0528634,31.3928828 44.0528634,31.6693871 C44.0528634,31.9453602 43.9361674,32.2218645 43.7348899,32.4237312 C43.544978,32.6145749 43.2703524,32.7318436 42.9957269,32.7318436 Z" id="Path" fill="#4CD7FF"></path>
                    <path d="M37.0045374,25.6927374 C36.7185463,25.6927374 36.4439207,25.5754688 36.2528194,25.3737349 C36.052467,25.1827583 35.9471366,24.906254 35.9471366,24.630281 C35.9471366,24.3537767 36.052467,24.0778036 36.2528194,23.8759369 C36.644141,23.4826952 37.3523789,23.4826952 37.7437004,23.8759369 C37.944978,24.0778036 38.061674,24.3537767 38.061674,24.630281 C38.061674,24.906254 37.944978,25.1827583 37.7437004,25.3846251 C37.5537885,25.5754688 37.279163,25.6927374 37.0045374,25.6927374 Z" id="Path" fill="#AEEFFF"></path>
                    <path d="M37.0045374,57.0167598 C36.7185463,57.0167598 36.4542291,56.8994911 36.2528194,56.7086474 C36.052467,56.5067807 35.9471366,56.2302764 35.9471366,55.9543033 C35.9471366,55.677799 36.052467,55.4018259 36.2528194,55.1999592 C36.644141,54.8067175 37.3523789,54.8067175 37.7437004,55.1999592 C37.944978,55.4018259 38.061674,55.677799 38.061674,55.9543033 C38.061674,56.2302764 37.944978,56.5067807 37.7437004,56.7086474 C37.5537885,56.8994911 37.279163,57.0167598 37.0045374,57.0167598 Z" id="Path" fill="#40A55B"></path>
                    <path d="M27.136696,56.3128492 C26.8507048,56.3128492 26.5760793,56.1955805 26.384978,56.0047368 C26.1846256,55.8028701 26.0792952,55.5263658 26.0792952,55.2503927 C26.0792952,54.9738884 26.1846256,54.6979153 26.384978,54.4960486 C26.7762996,54.1028069 27.4845374,54.1028069 27.875859,54.4960486 C28.0771366,54.6979153 28.1938326,54.9738884 28.1938326,55.2503927 C28.1938326,55.5263658 28.0771366,55.8028701 27.875859,56.0047368 C27.6859471,56.1955805 27.4113216,56.3128492 27.136696,56.3128492 Z" id="Path" fill="#40A55B"></path>
                    <path d="M1.23354071,23.2348111 C10.0111807,23.2348111 17.1456676,24.9619616 23.5974232,28.3169875 C26.3333579,29.7397214 28.9504773,31.451277 31.7116564,33.569856 C33.8345338,35.1986831 35.5479164,36.6458741 39.0410999,39.6981024 L39.3924564,40.0051204 C42.8775063,43.0502308 44.6057801,44.5112714 46.763183,46.17312 C49.6059208,48.3628824 52.3173924,50.1537404 55.1631329,51.6632975 C61.9102756,55.2424001 69.3522864,57.1737982 78.3874908,57.3687151 C79.0685988,57.3830951 79.6326282,56.8423119 79.6475771,56.1605506 C79.6619433,55.4787892 79.1216784,54.9142187 78.4405704,54.8995471 C69.7894648,54.7131957 62.7249635,52.8797712 56.3183724,49.4813183 C53.6047256,48.0418319 51.0070024,46.3261017 48.2677963,44.2160899 C46.1631678,42.5948935 44.4626318,41.1573017 41.014857,38.144761 L40.6635039,37.8377459 C37.1318249,34.7518815 35.3899796,33.2806498 33.2125479,31.6099646 C30.3438536,29.4088922 27.6084053,27.6199513 24.7347892,26.1256206 C17.9299726,22.5869968 10.4051962,20.7653631 1.23354071,20.7653631 C0.552274987,20.7653631 0,21.3181679 0,22.0000871 C0,22.6820063 0.552274987,23.2348111 1.23354071,23.2348111 Z" id="Line" fill="#4FC56F"></path>
                </g>
            </g>
        </g>
    </g>
</svg>