<?xml version="1.0" encoding="UTF-8"?>
<svg width="484px" height="179px" viewBox="0 0 484 179" version="1.1" xmlns="http://www.w3.org/2000/svg" xmlns:xlink="http://www.w3.org/1999/xlink">
    <!-- Generator: Sketch 57.1 (83088) - https://sketch.com -->
    <title>logo-light</title>
    <desc>Created with Sketch.</desc>
    <g id="Third-Concept" stroke="none" stroke-width="1" fill="none" fill-rule="evenodd">
        <g id="Concept" transform="translate(-834.000000, -272.000000)" fill-rule="nonzero">
            <g id="logo-light" transform="translate(834.000000, 272.000000)">
                <g id="Group-2-Copy" transform="translate(170.000000, 0.000000)" fill="#FFFFFF">
                    <path d="M12.8556222,26.6440343 L7.72771713,26.6440343 L7.72771713,6.22940013 L0,6.22940013 L0,1.12129202 L20.5654096,1.12129202 L20.5654096,6.22940013 L12.8556222,6.22940013 L12.8556222,26.6440343 Z M29.5525907,26.6440343 L24.6577722,26.6440343 L24.6577722,0 L29.5525907,0 L29.5525907,8.41858932 C30.1382985,7.97956274 30.7419269,7.66809584 31.3634943,7.4841793 C31.9850617,7.30026276 32.6185727,7.20830587 33.2640465,7.20830587 C34.4474152,7.20830587 35.5590478,7.43078222 36.5989778,7.8757416 C37.6389078,8.32070097 38.5443506,8.93176935 39.3153332,9.70896506 C40.0863157,10.4861608 40.6959207,11.3938643 41.1441664,12.4321028 C41.5924121,13.4703414 41.8165316,14.5767904 41.8165316,15.7514832 L41.8165316,26.6440343 L36.8858536,26.6440343 L36.8858536,15.7514832 L36.9217131,15.7514832 C36.9217131,15.2531287 36.8260888,14.7814788 36.6348373,14.3365194 C36.4435858,13.8915601 36.1806189,13.502968 35.8459288,13.1707317 C35.5112387,12.8384954 35.1227649,12.5774565 34.6804958,12.3876071 C34.2382268,12.1977578 33.7660817,12.1028345 33.2640465,12.1028345 C32.7500581,12.1028345 32.2659601,12.1977578 31.8117377,12.3876071 C31.3575154,12.5774565 30.9630652,12.8384954 30.628375,13.1707317 C30.2936849,13.502968 30.0307181,13.8915601 29.8394666,14.3365194 C29.6482151,14.7814788 29.5525907,15.2531287 29.5525907,15.7514832 L29.5525907,26.6440343 Z M54.8199741,21.9808833 C55.0112256,22.0402109 55.2024742,22.0787738 55.3937257,22.0965722 C55.5849772,22.1143706 55.7762258,22.1232696 55.9674773,22.1232696 C56.4456061,22.1232696 56.9057981,22.0580099 57.3480672,21.9274885 C57.7903362,21.796967 58.2057044,21.6100869 58.594184,21.3668425 C58.9826636,21.123598 59.3293017,20.8269629 59.6341088,20.4769281 C59.9389158,20.1268934 60.1869414,19.7383014 60.3781929,19.3111404 L63.9641405,22.8885959 C63.5099182,23.5293374 62.9869728,24.1048096 62.3952884,24.6150297 C61.8036041,25.1252497 61.1641165,25.558337 60.4768065,25.9143045 C59.7894964,26.2702721 59.0663375,26.54021 58.3073081,26.7241266 C57.5482788,26.9080431 56.768343,27 55.9674773,27 C54.6167636,27 53.3467532,26.7508265 52.157408,26.252472 C50.9680627,25.7541175 49.9281483,25.0599913 49.0376335,24.1700725 C48.1471188,23.2801538 47.4448777,22.2211663 46.9308893,20.9930784 C46.4169009,19.7649906 46.1599106,18.4153007 46.1599106,16.9439684 C46.1599106,15.4370393 46.4169009,14.0606522 46.9308893,12.814766 C47.4448777,11.5688797 48.1471188,10.5069259 49.0376335,9.62887278 C49.9281483,8.7508196 50.9680627,8.06855879 52.157408,7.58206987 C53.3467532,7.09558096 54.6167636,6.85234015 55.9674773,6.85234015 C56.768343,6.85234015 57.551267,6.94726339 58.316273,7.13711272 C59.081279,7.32696206 59.8074261,7.59986638 60.4947362,7.95583388 C61.1820463,8.31180138 61.8245221,8.74785503 62.422183,9.26400791 C63.019844,9.78016079 63.5457777,10.3585993 64,10.9993408 L54.8199741,21.9808833 Z M57.3301374,11.9604483 C57.1030263,11.8773892 56.8789068,11.8239948 56.6577722,11.8002637 C56.4366377,11.7765325 56.2065417,11.7646671 55.9674773,11.7646671 C55.2980971,11.7646671 54.6675743,11.8862875 54.0758899,12.129532 C53.4842056,12.3727764 52.9702249,12.7198395 52.5339325,13.1707317 C52.09764,13.6216239 51.7539901,14.1644662 51.5029725,14.7992749 C51.2519549,15.4340836 51.126448,16.1489743 51.126448,16.9439684 C51.126448,17.1219521 51.1354128,17.323664 51.1533426,17.5491101 C51.1712725,17.7745562 51.2011551,18.0029652 51.2429913,18.2343441 C51.2848276,18.465723 51.335628,18.6881993 51.3953941,18.9017798 C51.4551602,19.1153603 51.5328549,19.3052068 51.6284807,19.471325 L57.3301374,11.9604483 Z" id="The"></path>
                    <path d="M45.8316569,132.879555 C45.8316569,134.312546 45.5718297,135.646998 45.0521676,136.882952 C44.5325055,138.118907 43.825534,139.187663 42.9312317,140.089253 C42.0369295,140.990842 40.9885572,141.701356 39.7860832,142.220815 C38.5836093,142.740274 37.2935373,143 35.9158284,143 C34.5502048,143 33.2661752,142.740274 32.0637013,142.220815 C30.8612274,141.701356 29.8098338,140.990842 28.909489,140.089253 C28.0091442,139.187663 27.2991514,138.118907 26.7794893,136.882952 C26.2598272,135.646998 26,134.312546 26,132.879555 C26,131.422682 26.2598272,130.073302 26.7794893,128.831377 C27.2991514,127.589452 28.0091442,126.517711 28.909489,125.616121 C29.8098338,124.714531 30.8612274,124.007003 32.0637013,123.493515 C33.2661752,122.980026 34.5502048,122.723286 35.9158284,122.723286 C37.2935373,122.723286 38.5836093,122.965099 39.7860832,123.448734 C40.9885572,123.932368 42.0369295,124.618999 42.9312317,125.508647 C43.825534,126.398296 44.5325055,127.467052 45.0521676,128.714947 C45.5718297,129.962843 45.8316569,131.351032 45.8316569,132.879555 Z M40.8465512,132.879555 C40.8465512,132.091411 40.7166376,131.377911 40.4568065,130.739036 C40.1969755,130.100162 39.8434897,129.550857 39.3963386,129.091106 C38.9491875,128.631355 38.4265119,128.279083 37.8282963,128.03428 C37.2300806,127.789478 36.5925977,127.667078 35.9158284,127.667078 C35.2390592,127.667078 34.6015763,127.789478 34.0033606,128.03428 C33.4051449,128.279083 32.8854906,128.631355 32.4443821,129.091106 C32.0032736,129.550857 31.6558303,130.100162 31.4020418,130.739036 C31.1482534,131.377911 31.021361,132.091411 31.021361,132.879555 C31.021361,133.619934 31.1482534,134.306565 31.4020418,134.939469 C31.6558303,135.572373 32.0032736,136.121678 32.4443821,136.5874 C32.8854906,137.053122 33.4051449,137.42032 34.0033606,137.689006 C34.6015763,137.957691 35.2390592,138.092032 35.9158284,138.092032 C36.5925977,138.092032 37.2300806,137.966647 37.8282963,137.715874 C38.4265119,137.465101 38.9491875,137.112829 39.3963386,136.659049 C39.8434897,136.205268 40.1969755,135.655964 40.4568065,135.011118 C40.7166376,134.366272 40.8465512,133.655758 40.8465512,132.879555 Z M56.5495329,142.641754 L51.6006825,142.641754 L51.6006825,128.329833 L49.1897041,128.329833 L49.1897041,123.45769 L51.6006825,123.45769 L51.6006825,122.544163 C51.6006825,121.361946 51.827276,120.251395 52.2804697,119.212477 C52.7336634,118.173559 53.35604,117.268997 54.1476184,116.498765 C54.9391967,115.728532 55.8606767,115.11952 56.9120861,114.671711 C57.9634954,114.223901 59.0873989,114 60.2838303,114 L64,114 L64,118.872143 L60.2838303,118.872143 C59.752083,118.872143 59.2596199,118.964689 58.8064262,119.149784 C58.3532325,119.334878 57.9604706,119.591619 57.6281285,119.920012 C57.2957865,120.248406 57.0329381,120.636502 56.8395754,121.084311 C56.6462128,121.532121 56.5495329,122.018733 56.5495329,122.544163 L56.5495329,123.45769 L62.6222981,123.45769 L62.6222981,128.329833 L56.5495329,128.329833 L56.5495329,142.641754 Z" id="of"></path>
                    <path d="M0,60.0606061 C0,57.9429748 0.408031273,55.9562382 1.22410606,54.1003367 C2.04018085,52.2444352 3.15026593,50.6205457 4.55439461,49.2286195 C5.95852329,47.8366934 7.59664884,46.7362554 9.46882041,45.9272727 C11.340992,45.11829 13.3451456,44.7138047 15.4813414,44.7138047 L39.171394,44.7138047 L39.171394,54.9569024 L15.4813414,54.9569024 C14.7612754,54.9569024 14.0892239,55.0877652 13.4651667,55.3494949 C12.8411095,55.6112247 12.2950676,55.9740718 11.8270247,56.4380471 C11.3589818,56.9020225 10.9929538,57.443319 10.7289296,58.0619529 C10.4649054,58.6805867 10.3328953,59.3467978 10.3328953,60.0606061 C10.3328953,60.7744143 10.4649054,61.4465737 10.7289296,62.0771044 C10.9929538,62.707635 11.3589818,63.2548798 11.8270247,63.7188552 C12.2950676,64.1828306 12.8411095,64.5456777 13.4651667,64.8074074 C14.0892239,65.0691371 14.7612754,65.2 15.4813414,65.2 L25.8142366,65.2 C27.9504324,65.2 29.9605865,65.598537 31.8447592,66.3956229 C33.7289318,67.1927088 35.3730578,68.2871984 36.7771865,69.6791246 C38.1813152,71.0710507 39.2853998,72.7008885 40.0894735,74.5686869 C40.8935472,76.4364852 41.295578,78.4291701 41.295578,80.5468013 C41.295578,82.6644326 40.8935472,84.6511692 40.0894735,86.5070707 C39.2853998,88.3629722 38.1813152,89.9868617 36.7771865,91.3787879 C35.3730578,92.770714 33.7289318,93.871152 31.8447592,94.6801347 C29.9605865,95.4891174 27.9504324,95.8936027 25.8142366,95.8936027 L2.88024956,95.8936027 L2.88024956,85.6505051 L25.8142366,85.6505051 C26.5343026,85.6505051 27.2063541,85.5196422 27.8304113,85.2579125 C28.4544685,84.9961828 29.0005104,84.6333357 29.4685533,84.1693603 C29.9365962,83.7053849 30.3026242,83.1640884 30.5666484,82.5454545 C30.8306726,81.9268207 30.9626827,81.2606061 30.9626827,80.5468013 C30.9626827,79.8329931 30.8306726,79.166782 30.5666484,78.5481481 C30.3026242,77.9295143 29.9365962,77.3882178 29.4685533,76.9242424 C29.0005104,76.460267 28.4544685,76.0974199 27.8304113,75.8356902 C27.2063541,75.5739605 26.5343026,75.4430976 25.8142366,75.4430976 L15.4813414,75.4430976 C13.3451456,75.4430976 11.340992,75.0386124 9.46882041,74.2296296 C7.59664884,73.4206469 5.95852329,72.320209 4.55439461,70.9282828 C3.15026593,69.5363567 2.04018085,67.9065189 1.22410606,66.0387205 C0.408031273,64.1709222 0,62.1782373 0,60.0606061 Z M93.0768635,90.647138 C90.6766435,92.6933885 87.9884375,94.2637431 85.0121648,95.3582492 C82.035892,96.4527552 78.9516556,97 75.7593631,97 C73.3111387,97 70.9529579,96.6847394 68.6847501,96.0542088 C66.4165422,95.4236781 64.2923794,94.5314311 62.3121979,93.3774411 C60.3320165,92.223451 58.525878,90.8374941 56.8937285,89.2195286 C55.2615789,87.6015632 53.8634717,85.8111209 52.699365,83.8481481 C51.5352584,81.8851754 50.6351894,79.7794725 49.9991311,77.5309764 C49.3630728,75.2824803 49.0450484,72.9447933 49.0450484,70.5178451 C49.0450484,68.090897 49.3630728,65.7472616 49.9991311,63.4868687 C50.6351894,61.2264758 51.5352584,59.1148246 52.699365,57.1518519 C53.8634717,55.1888791 55.2615789,53.3984368 56.8937285,51.7804714 C58.525878,50.1625059 60.3320165,48.776549 62.3121979,47.6225589 C64.2923794,46.4685689 66.4165422,45.5763219 68.6847501,44.9457912 C70.9529579,44.3152606 73.3111387,44 75.7593631,44 C78.9516556,44 82.035892,44.5412965 85.0121648,45.6239057 C87.9884375,46.706515 90.6766435,48.2828179 93.0768635,50.352862 L87.6043894,59.2754209 C86.0922508,57.6574554 84.3041137,56.414258 82.2399246,55.5457912 C80.1757354,54.6773245 78.0155698,54.2430976 75.7593631,54.2430976 C73.4791541,54.2430976 71.3429904,54.6713762 69.3508078,55.5279461 C67.3586252,56.3845161 65.6184918,57.5444371 64.1303555,59.0077441 C62.6422191,60.4710511 61.466129,62.1960619 60.6020498,64.1828283 C59.7379706,66.1695947 59.3059375,68.2812458 59.3059375,70.5178451 C59.3059375,72.7544444 59.7379706,74.8541989 60.6020498,76.8171717 C61.466129,78.7801445 62.6422191,80.499207 64.1303555,81.9744108 C65.6184918,83.4496146 67.3586252,84.6154839 69.3508078,85.4720539 C71.3429904,86.3286238 73.4791541,86.7569024 75.7593631,86.7569024 C78.0155698,86.7569024 80.1757354,86.3226755 82.2399246,85.4542088 C84.3041137,84.585742 86.0922508,83.3425446 87.6043894,81.7245791 L93.0768635,90.647138 Z M113.175404,95.8936027 L102.842509,95.8936027 L102.842509,44.7138047 L113.175404,44.7138047 L113.175404,95.8936027 Z M161.932427,95.8936027 L126.541361,95.8936027 L126.541361,44.7138047 L161.932427,44.7138047 L161.932427,54.9569024 L136.874256,54.9569024 L136.874256,65.2 L153.831725,65.2 L153.831725,75.4430976 L136.874256,75.4430976 L136.874256,85.6505051 L161.932427,85.6505051 L161.932427,95.8936027 Z M214.25376,95.8936027 L203.200802,95.8936027 L183.291077,62.2020202 L183.291077,95.8936027 L172.958182,95.8936027 L172.958182,44.7138047 L184.011139,44.7138047 L203.920864,78.4410774 L203.920864,44.7138047 L214.25376,44.7138047 L214.25376,95.8936027 Z M268.843288,90.647138 C266.443069,92.6933885 263.754862,94.2637431 260.77859,95.3582492 C257.802317,96.4527552 254.718081,97 251.525788,97 C249.077564,97 246.719383,96.6847394 244.451175,96.0542088 C242.182967,95.4236781 240.058804,94.5314311 238.078623,93.3774411 C236.098441,92.223451 234.292303,90.8374941 232.660153,89.2195286 C231.028004,87.6015632 229.629897,85.8111209 228.46579,83.8481481 C227.301683,81.8851754 226.401614,79.7794725 225.765556,77.5309764 C225.129498,75.2824803 224.811473,72.9447933 224.811473,70.5178451 C224.811473,68.090897 225.129498,65.7472616 225.765556,63.4868687 C226.401614,61.2264758 227.301683,59.1148246 228.46579,57.1518519 C229.629897,55.1888791 231.028004,53.3984368 232.660153,51.7804714 C234.292303,50.1625059 236.098441,48.776549 238.078623,47.6225589 C240.058804,46.4685689 242.182967,45.5763219 244.451175,44.9457912 C246.719383,44.3152606 249.077564,44 251.525788,44 C254.718081,44 257.802317,44.5412965 260.77859,45.6239057 C263.754862,46.706515 266.443069,48.2828179 268.843288,50.352862 L263.370814,59.2754209 C261.858676,57.6574554 260.070539,56.414258 258.00635,55.5457912 C255.94216,54.6773245 253.781995,54.2430976 251.525788,54.2430976 C249.245579,54.2430976 247.109415,54.6713762 245.117233,55.5279461 C243.12505,56.3845161 241.384917,57.5444371 239.89678,59.0077441 C238.408644,60.4710511 237.232554,62.1960619 236.368475,64.1828283 C235.504396,66.1695947 235.072362,68.2812458 235.072362,70.5178451 C235.072362,72.7544444 235.504396,74.8541989 236.368475,76.8171717 C237.232554,78.7801445 238.408644,80.499207 239.89678,81.9744108 C241.384917,83.4496146 243.12505,84.6154839 245.117233,85.4720539 C247.109415,86.3286238 249.245579,86.7569024 251.525788,86.7569024 C253.781995,86.7569024 255.94216,86.3226755 258.00635,85.4542088 C260.070539,84.585742 261.858676,83.3425446 263.370814,81.7245791 L268.843288,90.647138 Z M314,95.8936027 L278.608934,95.8936027 L278.608934,44.7138047 L314,44.7138047 L314,54.9569024 L288.941829,54.9569024 L288.941829,65.2 L305.899298,65.2 L305.899298,75.4430976 L288.941829,75.4430976 L288.941829,85.6505051 L314,85.6505051 L314,95.8936027 Z" id="SCIENCE"></path>
                    <path d="M128.733815,146.5 C128.733815,149.491647 128.351105,152.36993 127.585675,155.134937 C126.820245,157.899944 125.73215,160.4836 124.321357,162.885983 C122.910564,165.288366 121.229645,167.479186 119.278548,169.458508 C117.327452,171.43783 115.151261,173.137603 112.749912,174.55788 C110.348562,175.978157 107.774655,177.073567 105.028111,177.844142 C102.281568,178.614718 99.4225037,179 96.4508337,179 L77,179 L77,114 L96.4508337,114 C99.4225037,114 102.281568,114.385282 105.028111,115.155858 C107.774655,115.926433 110.348562,117.021843 112.749912,118.44212 C115.151261,119.862397 117.327452,121.56217 119.278548,123.541492 C121.229645,125.520814 122.910564,127.711634 124.321357,130.114017 C125.73215,132.5164 126.820245,135.100056 127.585675,137.865063 C128.351105,140.63007 128.733815,143.508353 128.733815,146.5 Z M115.811617,146.5 C115.811617,143.81054 115.308842,141.28732 114.303277,138.930265 C113.297712,136.57321 111.916957,134.510818 110.16097,132.743026 C108.404983,130.975235 106.348858,129.577643 103.992534,128.550209 C101.63621,127.522775 99.122335,127.009066 96.4508337,127.009066 L90.0122475,127.009066 L90.0122475,165.990934 L96.4508337,165.990934 C99.122335,165.990934 101.63621,165.48478 103.992534,164.472455 C106.348858,163.46013 108.404983,162.070093 110.16097,160.302301 C111.916957,158.53451 113.297712,156.464563 114.303277,154.092399 C115.308842,151.720235 115.811617,149.18946 115.811617,146.5 Z M180.028383,153.027197 L180.028383,140.018131 C180.028383,138.235231 179.690699,136.550566 179.015319,134.964086 C178.339939,133.377607 177.416935,131.995124 176.246277,130.816597 C175.075619,129.638069 173.702368,128.70886 172.126482,128.02894 C170.550596,127.34902 168.877181,127.009066 167.106186,127.009066 C165.335191,127.009066 163.661775,127.34902 162.08589,128.02894 C160.510004,128.70886 159.136753,129.638069 157.966095,130.816597 C156.795437,131.995124 155.872432,133.377607 155.197053,134.964086 C154.521673,136.550566 154.183989,138.235231 154.183989,140.018131 L154.183989,153.027197 L180.028383,153.027197 Z M192.950581,179 L180.028383,179 L180.028383,165.990934 L154.183989,165.990934 L154.183989,179 L141.306816,179 L141.306816,140.018131 C141.306816,136.422111 141.982186,133.045227 143.332945,129.887378 C144.683704,126.729529 146.522209,123.972118 148.848517,121.615063 C151.174824,119.258008 153.906318,117.399588 157.043081,116.039749 C160.179844,114.67991 163.534179,114 167.106186,114 C170.678193,114 174.032528,114.67991 177.169291,116.039749 C180.306054,117.399588 183.045052,119.258008 185.386368,121.615063 C187.727683,123.972118 189.573693,126.729529 190.924452,129.887378 C192.275211,133.045227 192.950581,136.422111 192.950581,140.018131 L192.950581,179 Z M234.069482,179 L221.192309,179 L221.192309,127.009066 L201.786501,127.009066 L201.786501,114 L253.430265,114 L253.430265,127.009066 L234.069482,127.009066 L234.069482,179 Z M301.077803,153.027197 L301.077803,140.018131 C301.077803,138.235231 300.740118,136.550566 300.064738,134.964086 C299.389359,133.377607 298.466354,131.995124 297.295696,130.816597 C296.125038,129.638069 294.751787,128.70886 293.175901,128.02894 C291.600016,127.34902 289.9266,127.009066 288.155605,127.009066 C286.38461,127.009066 284.711195,127.34902 283.135309,128.02894 C281.559423,128.70886 280.186172,129.638069 279.015514,130.816597 C277.844857,131.995124 276.921852,133.377607 276.246472,134.964086 C275.571093,136.550566 275.233408,138.235231 275.233408,140.018131 L275.233408,153.027197 L301.077803,153.027197 Z M314,179 L301.077803,179 L301.077803,165.990934 L275.233408,165.990934 L275.233408,179 L262.356236,179 L262.356236,140.018131 C262.356236,136.422111 263.031605,133.045227 264.382364,129.887378 C265.733123,126.729529 267.571629,123.972118 269.897936,121.615063 C272.224243,119.258008 274.955738,117.399588 278.0925,116.039749 C281.229263,114.67991 284.583598,114 288.155605,114 C291.727613,114 295.081947,114.67991 298.21871,116.039749 C301.355473,117.399588 304.094471,119.258008 306.435787,121.615063 C308.777103,123.972118 310.623112,126.729529 311.973871,129.887378 C313.324631,133.045227 314,136.422111 314,140.018131 L314,179 Z" id="DATA"></path>
                </g>
                <g id="flask-copy-2">
                    <path d="M177.1923,152.95475 L129.841724,81.2898 L129.841724,11 L96.1584766,11 L96.1584766,81.2898 L48.8075498,152.95475 C41.4274099,164.12465 49.4584084,179 62.8696039,179 L163.130246,179 C176.541441,179 184.572791,164.12465 177.1923,152.95475 Z" id="Path" fill="#AEEFFF"></path>
                    <path d="M114,11 L97.2159923,11 L97.2159923,81.2898 L49.8107692,152.95475 C42.4221666,164.12465 50.4623741,179 63.8889479,179 L114,179 L114,11 L114,11 Z" id="Path" fill="#4CD7FF"></path>
                    <path d="M170.589153,157.995612 L158.882025,140.242718 C158.364448,139.457709 148.371112,137.045023 147.42917,137.045023 C141.588756,132.050451 136.557338,128.456155 132.334914,126.262136 C124.898137,122.397902 112.667622,113.310524 95.6433676,99 C94.7017768,99 77.0671528,126.73468 76.5495757,127.519689 L56.4110281,157.994214 C54.6753754,160.618369 54.5331031,163.832155 56.0276637,166.585981 C57.514515,169.349243 60.2849714,171 63.4331854,171 L163.566996,171 C166.71521,171 169.486017,169.349243 170.969715,166.592971 C172.467429,163.832155 172.325157,160.618369 170.589153,157.995612 Z" id="Path" fill="#4FC56F"></path>
                    <path d="M130.375,11 L96.625,11 C93.5182422,11 91,8.53771875 91,5.5 L91,5.5 C91,2.46228125 93.5182422,0 96.625,0 L130.375,0 C133.481758,0 136,2.46228125 136,5.5 L136,5.5 C136,8.53771875 133.481406,11 130.375,11 Z" id="Path" fill="#4BB9EC"></path>
                    <circle id="Oval" fill="#40A55B" cx="93.5" cy="145.5" r="5.5"></circle>
                    <path d="M72.000375,104 C71.188875,104 70.438875,103.666808 69.867375,103.12457 C69.298875,102.551012 69,101.765388 69,100.981274 C69,100.195651 69.298875,99.4115372 69.867375,98.8379793 C70.97775,97.7206736 72.987375,97.7206736 74.09775,98.8379793 C74.668875,99.4115372 75,100.166219 75,100.981274 C75,101.79633 74.668875,102.551012 74.09775,103.12457 C73.558875,103.666808 72.779625,104 72.000375,104 Z" id="Path-Copy-4" fill="#40A55B"></path>
                    <path d="M69.000375,90 C68.188875,90 67.438875,89.6668082 66.867375,89.1245696 C66.298875,88.5510117 66,87.7653884 66,86.9812745 C66,86.1956511 66.298875,85.4115372 66.867375,84.8379793 C67.97775,83.7206736 69.987375,83.7206736 71.09775,84.8379793 C71.668875,85.4115372 72,86.1662186 72,86.9812745 C72,87.7963304 71.668875,88.5510117 71.09775,89.1245696 C70.558875,89.6668082 69.779625,90 69.000375,90 Z" id="Path-Copy-5" fill="#40A55B"></path>
                    <path d="M86.000375,76 C85.188875,76 84.438875,75.6668082 83.867375,75.1245696 C83.298875,74.5510117 83,73.7653884 83,72.9812745 C83,72.1956511 83.298875,71.4115372 83.867375,70.8379793 C84.97775,69.7206736 86.987375,69.7206736 88.09775,70.8379793 C88.668875,71.4115372 89,72.1662186 89,72.9812745 C89,73.7963304 88.668875,74.5510117 88.09775,75.1245696 C87.558875,75.6668082 86.779625,76 86.000375,76 Z" id="Path-Copy-6" fill="#40A55B"></path>
                    <path d="M60.000375,64 C59.188875,64 58.438875,63.6668082 57.867375,63.1245696 C57.298875,62.5510117 57,61.7653884 57,60.9812745 C57,60.1956511 57.298875,59.4115372 57.867375,58.8379793 C58.97775,57.7206736 60.987375,57.7206736 62.09775,58.8379793 C62.668875,59.4115372 63,60.1662186 63,60.9812745 C63,61.7963304 62.668875,62.5510117 62.09775,63.1245696 C61.558875,63.6668082 60.779625,64 60.000375,64 Z" id="Path-Copy-7" fill="#40A55B"></path>
                    <path d="M38.000375,81 C37.188875,81 36.438875,80.6668082 35.867375,80.1245696 C35.298875,79.5510117 35,78.7653884 35,77.9812745 C35,77.1956511 35.298875,76.4115372 35.867375,75.8379793 C36.97775,74.7206736 38.987375,74.7206736 40.09775,75.8379793 C40.668875,76.4115372 41,77.1662186 41,77.9812745 C41,78.7963304 40.668875,79.5510117 40.09775,80.1245696 C39.558875,80.6668082 38.779625,81 38.000375,81 Z" id="Path-Copy-8" fill="#40A55B"></path>
                    <path d="M14.000375,78 C13.188875,78 12.438875,77.6668082 11.867375,77.1245696 C11.298875,76.5510117 11,75.7653884 11,74.9812745 C11,74.1956511 11.298875,73.4115372 11.867375,72.8379793 C12.97775,71.7206736 14.987375,71.7206736 16.09775,72.8379793 C16.668875,73.4115372 17,74.1662186 17,74.9812745 C17,75.7963304 16.668875,76.5510117 16.09775,77.1245696 C15.558875,77.6668082 14.779625,78 14.000375,78 Z" id="Path-Copy-9" fill="#40A55B"></path>
                    <path d="M26.000375,58 C25.188875,58 24.438875,57.6668082 23.867375,57.1245696 C23.298875,56.5510117 23,55.7653884 23,54.9812745 C23,54.1956511 23.298875,53.4115372 23.867375,52.8379793 C24.97775,51.7206736 26.987375,51.7206736 28.09775,52.8379793 C28.668875,53.4115372 29,54.1662186 29,54.9812745 C29,55.7963304 28.668875,56.5510117 28.09775,57.1245696 C27.558875,57.6668082 26.779625,58 26.000375,58 Z" id="Path-Copy-10" fill="#40A55B"></path>
                    <path d="M104.000375,118 C103.188875,118 102.438875,117.666808 101.867375,117.12457 C101.298875,116.551012 101,115.765388 101,114.981274 C101,114.195651 101.298875,113.411537 101.867375,112.837979 C102.97775,111.720674 104.958125,111.720674 106.09775,112.837979 C106.668875,113.411537 107,114.195651 107,114.981274 C107,115.765388 106.668875,116.551012 106.13,117.12457 C105.558875,117.666808 104.779625,118 104.000375,118 Z" id="Path" fill="#40A55B"></path>
                    <path d="M120.000375,143 C119.188875,143 118.438875,142.666808 117.867375,142.12457 C117.298875,141.551012 117,140.765388 117,139.981274 C117,139.195651 117.298875,138.411537 117.867375,137.837979 C118.97775,136.720674 120.958125,136.720674 122.09775,137.837979 C122.668875,138.411537 123,139.195651 123,139.981274 C123,140.765388 122.668875,141.551012 122.13,142.12457 C121.558875,142.666808 120.779625,143 120.000375,143 Z" id="Path-Copy-11" fill="#40A55B"></path>
                    <path d="M147.000375,151 C146.188875,151 145.438875,150.666808 144.867375,150.12457 C144.298875,149.551012 144,148.765388 144,147.981274 C144,147.195651 144.298875,146.411537 144.867375,145.837979 C145.97775,144.720674 147.958125,144.720674 149.09775,145.837979 C149.668875,146.411537 150,147.195651 150,147.981274 C150,148.765388 149.668875,149.551012 149.13,150.12457 C148.558875,150.666808 147.779625,151 147.000375,151 Z" id="Path-Copy-13" fill="#40A55B"></path>
                    <path d="M137.000375,118 C136.188875,118 135.438875,117.666808 134.867375,117.12457 C134.298875,116.551012 134,115.765388 134,114.981274 C134,114.195651 134.298875,113.411537 134.867375,112.837979 C135.97775,111.720674 137.958125,111.720674 139.09775,112.837979 C139.668875,113.411537 140,114.195651 140,114.981274 C140,115.765388 139.668875,116.551012 139.13,117.12457 C138.558875,117.666808 137.779625,118 137.000375,118 Z" id="Path-Copy-12" fill="#4CD7FF"></path>
                    <path d="M122.000375,93 C121.188875,93 120.438875,92.6668082 119.867375,92.1245696 C119.298875,91.5510117 119,90.7653884 119,89.9812745 C119,89.1956511 119.298875,88.4115372 119.867375,87.8379793 C120.97775,86.7206736 122.958125,86.7206736 124.09775,87.8379793 C124.668875,88.4115372 125,89.1956511 125,89.9812745 C125,90.7653884 124.668875,91.5510117 124.09775,92.1245696 C123.558875,92.6668082 122.779625,93 122.000375,93 Z" id="Path" fill="#4CD7FF"></path>
                    <path d="M105.000375,73 C104.188875,73 103.409625,72.6668082 102.867375,72.0936277 C102.298875,71.5510117 102,70.7653884 102,69.9812745 C102,69.1956511 102.298875,68.4115372 102.867375,67.8379793 C103.97775,66.7206736 105.987375,66.7206736 107.09775,67.8379793 C107.668875,68.4115372 108,69.1956511 108,69.9812745 C108,70.7653884 107.668875,71.5510117 107.09775,72.1245696 C106.558875,72.6668082 105.779625,73 105.000375,73 Z" id="Path" fill="#AEEFFF"></path>
                    <path d="M105.000375,162 C104.188875,162 103.438875,161.666808 102.867375,161.12457 C102.298875,160.551012 102,159.765388 102,158.981274 C102,158.195651 102.298875,157.411537 102.867375,156.837979 C103.97775,155.720674 105.987375,155.720674 107.09775,156.837979 C107.668875,157.411537 108,158.195651 108,158.981274 C108,159.765388 107.668875,160.551012 107.09775,161.12457 C106.558875,161.666808 105.779625,162 105.000375,162 Z" id="Path" fill="#40A55B"></path>
                    <path d="M77.000375,160 C76.188875,160 75.409625,159.666808 74.867375,159.12457 C74.298875,158.551012 74,157.765388 74,156.981274 C74,156.195651 74.298875,155.411537 74.867375,154.837979 C75.97775,153.720674 77.987375,153.720674 79.09775,154.837979 C79.668875,155.411537 80,156.195651 80,156.981274 C80,157.765388 79.668875,158.551012 79.09775,159.12457 C78.558875,159.666808 77.779625,160 77.000375,160 Z" id="Path" fill="#40A55B"></path>
                    <path d="M3.50017176,66.016368 C28.4067252,66.016368 48.6508319,70.9236687 66.9576882,80.4562025 C74.720903,84.4985736 82.1469793,89.3615649 89.9818251,95.3810195 C96.0054896,100.008957 100.867213,104.120817 110.779121,112.793021 L111.776095,113.665342 C121.664924,122.317322 126.568901,126.468533 132.690532,131.190293 C140.7568,137.411999 148.450601,142.50031 156.52539,146.789369 C175.670407,156.958565 196.787113,162.446189 222.424505,163 C224.357149,163.040857 225.957583,161.504347 226,159.567279 C226.040764,157.630211 224.507763,156.026114 222.575118,155.984428 C198.027606,155.454953 177.982084,150.245699 159.803382,140.589777 C152.103409,136.499808 144.732369,131.624956 136.959872,125.629843 C130.987989,121.023586 126.162718,116.939 116.379657,108.379559 L115.382692,107.507246 C105.361553,98.7394729 100.419067,94.5593066 94.2406046,89.8124392 C86.1006846,83.5585984 78.33885,78.4757346 70.1849644,74.2299379 C50.8762971,64.1757528 29.5247441,59 3.50017176,59 C1.56708028,59 0,60.5706675 0,62.508184 C0,64.4457005 1.56708028,66.016368 3.50017176,66.016368 Z" id="Line" fill="#4FC56F"></path>
                </g>
            </g>
        </g>
    </g>
</svg>