<svg version="1" xmlns="http://www.w3.org/2000/svg" width="686.667" height="686.667" viewBox="0 0 515.000000 515.000000"><path d="M.4.9c-.2.2-.4 115.9-.4 257v256.6h51.4c28.3 0 51.2-.2 50.9-.5-.2-.3-22.8-.6-50.1-.6-27.3-.1-50-.2-50.4-.3-.5 0-.8-115.1-.8-255.6S1.3 1.9 1.8 1.9c.4-.1 46.5-.2 102.4-.3 55.9 0 101.9-.3 102.1-.6.3-.3-45.8-.5-102.5-.5C47.2.5.6.7.4.9z"/><path d="M208.6 1.1c.2.4-1.2 1-3.1 1.3-1.9.4-4.9 1.9-6.6 3.3-11.1 9.4-5.3 26.8 9.4 28.2.4.1.7 45.2.7 100.3v100.2l-5.2 8c-7.5 11.7-6.6 11.2-12.9 6.6-2.9-2.1-5.8-4.3-6.4-4.7-1.3-1.1-18.5-12.5-20.7-13.8-37.3-22.1-58.3-31.8-91.8-42.3-8.3-2.6-33.1-8.8-39-9.7-2.5-.4-5.4-.9-6.5-1.2-8.6-2-13.9 0-15.7 6-2 6.8 1.8 11.8 10.2 13.3 56.9 10.2 105.7 31 154.5 65.9 2.8 2 6 4.3 7.3 5.2 1.2.8 2.2 1.9 2.2 2.4 0 .4-21.3 33.1-47.3 72.6C72 442.3 73 440.8 70.5 445.9c-12.2 24.7 1.3 56.2 28.1 65.6 3.5 1.2 6.2 2.4 6 2.6-.8.7 300.9.4 302-.3.6-.4 1.4-.4 1.8 0 .8.8 102.6 1 103.1.2.2-.3-22.8-.5-51-.5s-50.8-.3-50.2-.7c.7-.4 1.9-.8 2.7-.8 3.3 0 13.8-6 19-10.7 13.6-12.5 19.1-32.4 13.7-49.6-1.4-4.5-1.4-4.8.1-4.2 10.8 4.1 50.2 12.9 54.3 12 4.3-1 7.2-4.8 7.2-9.6 0-6.4-3.6-9.1-14.9-11.3-4.9-1-9.6-1.9-10.4-2.1l-8-2c-3.6-.9-7.3-1.8-8.2-2-3.5-.7-13.7-3.9-26.1-8.3l-12.9-4.5-10.6-16.1c-5.8-8.9-18.9-28.7-29-44.1-10.2-15.4-22.8-34.5-28-42.5-5.3-8-19.6-29.7-31.9-48.3L305 234.9V34.2l3.2-.6c4.4-.9 9.2-4.8 11.3-9.2 3.4-7.2-.3-17.4-7.4-20.4-1.7-.7-3.1-1.5-3.1-1.9 0-.4 7.4-.7 16.5-.6 9 .1 16.2-.1 15.9-.4-.8-.8-133.3-.8-132.8 0z"/><path d="M343 1c0 .3 38.1.5 84.8.5h84.7l.5 257 .5 257 .3-257.5L514 .5h-85.5c-47 0-85.5.2-85.5.5zM88.4 131.6c-11.2 3.9-17.4 16-14.4 28.5 1.8 7.5 9.4 15.1 16.8 16.8 11.5 2.8 22.2-2.2 27.8-12.9 2.5-4.8 2.5-15.3.1-20.1-5.6-11.2-18.4-16.4-30.3-12.3zM173 203.3c-3.5 1.7-4.9 7.7-2.7 11 3.6 5.6 13 3.8 14.2-2.7.8-4.1-.7-7.4-4.1-8.6-3.3-1.3-4.4-1.2-7.4.3zM36.3 220.6c-2.1 2.1-2.4 3.2-1.9 6.2.6 3.8 3.8 7.1 6.8 7.2 5.4 0 9.5-4.7 8.3-9.9-1.3-6.2-8.6-8.1-13.2-3.5zM124.1 243.7c-3.1 2.5-3.8 8.2-1.4 11.1 2.6 3.2 8.3 3.8 11.1 1.2 4.5-4.2 3.8-11.1-1.4-13-3.7-1.4-5.9-1.2-8.3.7zM104.1 269.8c-9.2 3.1-16 14.2-14.8 24.4 2 16.4 18.6 26.2 33.2 19.4 15.8-7.3 19.2-26.9 6.8-39-3.9-3.8-12.1-6.8-17.5-6.4-1.9.1-5.4.8-7.7 1.6z"/></svg>